<?xml version="1.0" encoding="utf-8"?>
<!-- Generator: Adobe Illustrator 27.5.0, SVG Export Plug-In . SVG Version: 6.00 Build 0)  -->
<svg version="1.1" xmlns="http://www.w3.org/2000/svg" xmlns:xlink="http://www.w3.org/1999/xlink" x="0px" y="0px"
	 viewBox="0 0 500 500" style="enable-background:new 0 0 500 500;" xml:space="preserve">
<g id="Background_Simple">
	<g>
		<path style="fill:#C6FF00;" d="M429.253,152.546c-0.012-0.041-0.024-0.082-0.036-0.124c-5.38-18.574-21.614-30.628-37.65-39.834
			c-32.344-18.569-62.352-6.761-109.004,4.978c-46.652,11.739-74.971-0.313-117.342-13.343
			c-63.195-19.434-110.873,40.566-102.2,100.146c4.087,28.071,16.746,53.93,21.874,81.773c7.517,40.812-22.064,59.661,1.393,94.077
			c23.456,34.416,86.739,42.284,128.92,35.634c25.576-4.032,47.716-18.311,71.882-26.652c22.673-7.826,47.307-6.122,70.001,0.686
			c21.044,6.314,45.969,12.523,63.841-4.515c20.287-19.341,27.087-42.293,17.121-68.597c-8.625-22.764-24.802-42.129-32.157-65.402
			c-6.192-19.591,5.599-30.513,14.721-46.369C429.437,189.676,434.233,169.907,429.253,152.546z"/>
		<path style="opacity:0.7;fill:#FFFFFF;" d="M429.253,152.546c-0.012-0.041-0.024-0.082-0.036-0.124
			c-5.38-18.574-21.614-30.628-37.65-39.834c-32.344-18.569-62.352-6.761-109.004,4.978c-46.652,11.739-74.971-0.313-117.342-13.343
			c-63.195-19.434-110.873,40.566-102.2,100.146c4.087,28.071,16.746,53.93,21.874,81.773c7.517,40.812-22.064,59.661,1.393,94.077
			c23.456,34.416,86.739,42.284,128.92,35.634c25.576-4.032,47.716-18.311,71.882-26.652c22.673-7.826,47.307-6.122,70.001,0.686
			c21.044,6.314,45.969,12.523,63.841-4.515c20.287-19.341,27.087-42.293,17.121-68.597c-8.625-22.764-24.802-42.129-32.157-65.402
			c-6.192-19.591,5.599-30.513,14.721-46.369C429.437,189.676,434.233,169.907,429.253,152.546z"/>
	</g>
</g>
<g id="Files">
	<g>
		<g>
			<g>
				<g>
					<polygon points="266.739,286.699 238.739,286.699 238.739,249.192 258.403,249.192 266.739,256.832 					"/>
					<polygon style="fill:#FFFFFF;stroke:#263238;stroke-linecap:round;stroke-linejoin:round;stroke-miterlimit:10;" points="
						268.375,285.434 240.375,285.434 240.375,247.927 260.038,247.927 268.375,255.567 					"/>
					<polygon style="stroke:#263238;stroke-linecap:round;stroke-linejoin:round;stroke-miterlimit:10;" points="260.038,247.927 
						257.993,256.899 268.375,255.567 					"/>
					<polygon style="fill:#FFFFFF;stroke:#263238;stroke-linecap:round;stroke-linejoin:round;stroke-miterlimit:10;" points="
						260.038,247.927 260.038,255.567 268.375,255.567 					"/>
				</g>
				
					<line style="fill:#FFFFFF;stroke:#263238;stroke-linecap:round;stroke-linejoin:round;stroke-miterlimit:10;" x1="245.735" y1="261.082" x2="261.694" y2="261.082"/>
				
					<line style="fill:#FFFFFF;stroke:#263238;stroke-linecap:round;stroke-linejoin:round;stroke-miterlimit:10;" x1="245.735" y1="264.993" x2="261.694" y2="264.993"/>
				
					<line style="fill:#FFFFFF;stroke:#263238;stroke-linecap:round;stroke-linejoin:round;stroke-miterlimit:10;" x1="245.735" y1="268.904" x2="261.694" y2="268.904"/>
				
					<line style="fill:#FFFFFF;stroke:#263238;stroke-linecap:round;stroke-linejoin:round;stroke-miterlimit:10;" x1="245.735" y1="272.815" x2="261.694" y2="272.815"/>
				
					<line style="fill:#FFFFFF;stroke:#263238;stroke-linecap:round;stroke-linejoin:round;stroke-miterlimit:10;" x1="245.735" y1="276.726" x2="261.694" y2="276.726"/>
			</g>
			<g>
				<g>
					<polygon points="401.406,286.699 373.406,286.699 373.406,249.192 393.069,249.192 401.406,256.832 					"/>
					<polygon style="fill:#FFFFFF;stroke:#263238;stroke-linecap:round;stroke-linejoin:round;stroke-miterlimit:10;" points="
						403.041,285.434 375.041,285.434 375.041,247.927 394.705,247.927 403.041,255.567 					"/>
					<polygon style="stroke:#263238;stroke-linecap:round;stroke-linejoin:round;stroke-miterlimit:10;" points="394.705,247.927 
						392.659,256.899 403.041,255.567 					"/>
					<polygon style="fill:#FFFFFF;stroke:#263238;stroke-linecap:round;stroke-linejoin:round;stroke-miterlimit:10;" points="
						394.705,247.927 394.705,255.567 403.041,255.567 					"/>
				</g>
				
					<line style="fill:#FFFFFF;stroke:#263238;stroke-linecap:round;stroke-linejoin:round;stroke-miterlimit:10;" x1="380.402" y1="261.082" x2="396.361" y2="261.082"/>
				
					<line style="fill:#FFFFFF;stroke:#263238;stroke-linecap:round;stroke-linejoin:round;stroke-miterlimit:10;" x1="380.402" y1="264.993" x2="396.361" y2="264.993"/>
				
					<line style="fill:#FFFFFF;stroke:#263238;stroke-linecap:round;stroke-linejoin:round;stroke-miterlimit:10;" x1="380.402" y1="268.904" x2="396.361" y2="268.904"/>
				
					<line style="fill:#FFFFFF;stroke:#263238;stroke-linecap:round;stroke-linejoin:round;stroke-miterlimit:10;" x1="380.402" y1="272.815" x2="396.361" y2="272.815"/>
				
					<line style="fill:#FFFFFF;stroke:#263238;stroke-linecap:round;stroke-linejoin:round;stroke-miterlimit:10;" x1="380.402" y1="276.726" x2="396.361" y2="276.726"/>
			</g>
			<g>
				<g>
					<polygon points="129.731,286.699 101.731,286.699 101.731,249.192 121.395,249.192 129.731,256.832 					"/>
					<polygon style="fill:#FFFFFF;stroke:#263238;stroke-linecap:round;stroke-linejoin:round;stroke-miterlimit:10;" points="
						131.367,285.434 103.367,285.434 103.367,247.927 123.03,247.927 131.367,255.567 					"/>
					<polygon style="stroke:#263238;stroke-linecap:round;stroke-linejoin:round;stroke-miterlimit:10;" points="123.03,247.927 
						120.985,256.899 131.367,255.567 					"/>
					<polygon style="fill:#FFFFFF;stroke:#263238;stroke-linecap:round;stroke-linejoin:round;stroke-miterlimit:10;" points="
						123.03,247.927 123.03,255.567 131.367,255.567 					"/>
				</g>
				
					<line style="fill:#FFFFFF;stroke:#263238;stroke-linecap:round;stroke-linejoin:round;stroke-miterlimit:10;" x1="108.727" y1="261.082" x2="124.686" y2="261.082"/>
				
					<line style="fill:#FFFFFF;stroke:#263238;stroke-linecap:round;stroke-linejoin:round;stroke-miterlimit:10;" x1="108.727" y1="264.993" x2="124.686" y2="264.993"/>
				
					<line style="fill:#FFFFFF;stroke:#263238;stroke-linecap:round;stroke-linejoin:round;stroke-miterlimit:10;" x1="108.727" y1="268.904" x2="124.686" y2="268.904"/>
				
					<line style="fill:#FFFFFF;stroke:#263238;stroke-linecap:round;stroke-linejoin:round;stroke-miterlimit:10;" x1="108.727" y1="272.815" x2="124.686" y2="272.815"/>
				
					<line style="fill:#FFFFFF;stroke:#263238;stroke-linecap:round;stroke-linejoin:round;stroke-miterlimit:10;" x1="108.727" y1="276.726" x2="124.686" y2="276.726"/>
			</g>
		</g>
		<g>
			<g>
				<g>
					<polygon points="266.739,380.42 238.739,380.42 238.739,342.913 258.403,342.913 266.739,350.553 					"/>
					<polygon style="fill:#FFFFFF;stroke:#263238;stroke-linecap:round;stroke-linejoin:round;stroke-miterlimit:10;" points="
						268.375,379.155 240.375,379.155 240.375,341.647 260.038,341.647 268.375,349.287 					"/>
					<polygon style="stroke:#263238;stroke-linecap:round;stroke-linejoin:round;stroke-miterlimit:10;" points="260.038,341.647 
						257.993,350.62 268.375,349.287 					"/>
					<polygon style="fill:#FFFFFF;stroke:#263238;stroke-linecap:round;stroke-linejoin:round;stroke-miterlimit:10;" points="
						260.038,341.647 260.038,349.287 268.375,349.287 					"/>
				</g>
				
					<line style="fill:#FFFFFF;stroke:#263238;stroke-linecap:round;stroke-linejoin:round;stroke-miterlimit:10;" x1="245.735" y1="354.803" x2="261.694" y2="354.803"/>
				
					<line style="fill:#FFFFFF;stroke:#263238;stroke-linecap:round;stroke-linejoin:round;stroke-miterlimit:10;" x1="245.735" y1="358.714" x2="261.694" y2="358.714"/>
				
					<line style="fill:#FFFFFF;stroke:#263238;stroke-linecap:round;stroke-linejoin:round;stroke-miterlimit:10;" x1="245.735" y1="362.625" x2="261.694" y2="362.625"/>
				
					<line style="fill:#FFFFFF;stroke:#263238;stroke-linecap:round;stroke-linejoin:round;stroke-miterlimit:10;" x1="245.735" y1="366.536" x2="261.694" y2="366.536"/>
				
					<line style="fill:#FFFFFF;stroke:#263238;stroke-linecap:round;stroke-linejoin:round;stroke-miterlimit:10;" x1="245.735" y1="370.447" x2="261.694" y2="370.447"/>
			</g>
			<g>
				<g>
					<polygon points="401.406,380.42 373.406,380.42 373.406,342.913 393.069,342.913 401.406,350.553 					"/>
					<polygon style="fill:#FFFFFF;stroke:#263238;stroke-linecap:round;stroke-linejoin:round;stroke-miterlimit:10;" points="
						403.041,379.155 375.041,379.155 375.041,341.647 394.705,341.647 403.041,349.287 					"/>
					<polygon style="stroke:#263238;stroke-linecap:round;stroke-linejoin:round;stroke-miterlimit:10;" points="394.705,341.647 
						392.659,350.62 403.041,349.287 					"/>
					<polygon style="fill:#FFFFFF;stroke:#263238;stroke-linecap:round;stroke-linejoin:round;stroke-miterlimit:10;" points="
						394.705,341.647 394.705,349.287 403.041,349.287 					"/>
				</g>
				
					<line style="fill:#FFFFFF;stroke:#263238;stroke-linecap:round;stroke-linejoin:round;stroke-miterlimit:10;" x1="380.402" y1="354.803" x2="396.361" y2="354.803"/>
				
					<line style="fill:#FFFFFF;stroke:#263238;stroke-linecap:round;stroke-linejoin:round;stroke-miterlimit:10;" x1="380.402" y1="358.714" x2="396.361" y2="358.714"/>
				
					<line style="fill:#FFFFFF;stroke:#263238;stroke-linecap:round;stroke-linejoin:round;stroke-miterlimit:10;" x1="380.402" y1="362.625" x2="396.361" y2="362.625"/>
				
					<line style="fill:#FFFFFF;stroke:#263238;stroke-linecap:round;stroke-linejoin:round;stroke-miterlimit:10;" x1="380.402" y1="366.536" x2="396.361" y2="366.536"/>
				
					<line style="fill:#FFFFFF;stroke:#263238;stroke-linecap:round;stroke-linejoin:round;stroke-miterlimit:10;" x1="380.402" y1="370.447" x2="396.361" y2="370.447"/>
			</g>
			<g>
				<g>
					<polygon points="129.731,380.42 101.731,380.42 101.731,342.913 121.395,342.913 129.731,350.553 					"/>
					<polygon style="fill:#FFFFFF;stroke:#263238;stroke-linecap:round;stroke-linejoin:round;stroke-miterlimit:10;" points="
						131.367,379.155 103.367,379.155 103.367,341.647 123.03,341.647 131.367,349.287 					"/>
					<polygon style="stroke:#263238;stroke-linecap:round;stroke-linejoin:round;stroke-miterlimit:10;" points="123.03,341.647 
						120.985,350.62 131.367,349.287 					"/>
					<polygon style="fill:#FFFFFF;stroke:#263238;stroke-linecap:round;stroke-linejoin:round;stroke-miterlimit:10;" points="
						123.03,341.647 123.03,349.287 131.367,349.287 					"/>
				</g>
				
					<line style="fill:#FFFFFF;stroke:#263238;stroke-linecap:round;stroke-linejoin:round;stroke-miterlimit:10;" x1="108.727" y1="354.803" x2="124.686" y2="354.803"/>
				
					<line style="fill:#FFFFFF;stroke:#263238;stroke-linecap:round;stroke-linejoin:round;stroke-miterlimit:10;" x1="108.727" y1="358.714" x2="124.686" y2="358.714"/>
				
					<line style="fill:#FFFFFF;stroke:#263238;stroke-linecap:round;stroke-linejoin:round;stroke-miterlimit:10;" x1="108.727" y1="362.625" x2="124.686" y2="362.625"/>
				
					<line style="fill:#FFFFFF;stroke:#263238;stroke-linecap:round;stroke-linejoin:round;stroke-miterlimit:10;" x1="108.727" y1="366.536" x2="124.686" y2="366.536"/>
				
					<line style="fill:#FFFFFF;stroke:#263238;stroke-linecap:round;stroke-linejoin:round;stroke-miterlimit:10;" x1="108.727" y1="370.447" x2="124.686" y2="370.447"/>
			</g>
			<g>
				<g>
					<polygon points="197.065,331.754 169.065,331.754 169.065,294.246 188.728,294.246 197.065,301.886 					"/>
					<polygon style="fill:#C6FF00;stroke:#263238;stroke-linecap:round;stroke-linejoin:round;stroke-miterlimit:10;" points="
						198.7,330.488 170.7,330.488 170.7,292.981 190.364,292.981 198.7,300.621 					"/>
					<polygon style="stroke:#263238;stroke-linecap:round;stroke-linejoin:round;stroke-miterlimit:10;" points="190.364,292.981 
						188.318,301.953 198.7,300.621 					"/>
					<polygon style="fill:#FFFFFF;stroke:#263238;stroke-linecap:round;stroke-linejoin:round;stroke-miterlimit:10;" points="
						190.364,292.981 190.364,300.621 198.7,300.621 					"/>
				</g>
				
					<line style="fill:#FFFFFF;stroke:#263238;stroke-linecap:round;stroke-linejoin:round;stroke-miterlimit:10;" x1="176.061" y1="306.137" x2="192.02" y2="306.137"/>
				
					<line style="fill:#FFFFFF;stroke:#263238;stroke-linecap:round;stroke-linejoin:round;stroke-miterlimit:10;" x1="176.061" y1="310.047" x2="192.02" y2="310.047"/>
				
					<line style="fill:#FFFFFF;stroke:#263238;stroke-linecap:round;stroke-linejoin:round;stroke-miterlimit:10;" x1="176.061" y1="313.958" x2="192.02" y2="313.958"/>
				
					<line style="fill:#FFFFFF;stroke:#263238;stroke-linecap:round;stroke-linejoin:round;stroke-miterlimit:10;" x1="176.061" y1="317.869" x2="192.02" y2="317.869"/>
				
					<line style="fill:#FFFFFF;stroke:#263238;stroke-linecap:round;stroke-linejoin:round;stroke-miterlimit:10;" x1="176.061" y1="321.78" x2="192.02" y2="321.78"/>
			</g>
		</g>
		<g>
			<g>
				<g>
					<polygon points="266.739,192.979 238.739,192.979 238.739,155.471 258.403,155.471 266.739,163.111 					"/>
					<polygon style="fill:#FFFFFF;stroke:#263238;stroke-linecap:round;stroke-linejoin:round;stroke-miterlimit:10;" points="
						268.375,191.713 240.375,191.713 240.375,154.206 260.038,154.206 268.375,161.846 					"/>
					<polygon style="stroke:#263238;stroke-linecap:round;stroke-linejoin:round;stroke-miterlimit:10;" points="260.038,154.206 
						257.993,163.178 268.375,161.846 					"/>
					<polygon style="fill:#FFFFFF;stroke:#263238;stroke-linecap:round;stroke-linejoin:round;stroke-miterlimit:10;" points="
						260.038,154.206 260.038,161.846 268.375,161.846 					"/>
				</g>
				
					<line style="fill:#FFFFFF;stroke:#263238;stroke-linecap:round;stroke-linejoin:round;stroke-miterlimit:10;" x1="245.735" y1="167.362" x2="261.694" y2="167.362"/>
				
					<line style="fill:#FFFFFF;stroke:#263238;stroke-linecap:round;stroke-linejoin:round;stroke-miterlimit:10;" x1="245.735" y1="171.273" x2="261.694" y2="171.273"/>
				
					<line style="fill:#FFFFFF;stroke:#263238;stroke-linecap:round;stroke-linejoin:round;stroke-miterlimit:10;" x1="245.735" y1="175.184" x2="261.694" y2="175.184"/>
				
					<line style="fill:#FFFFFF;stroke:#263238;stroke-linecap:round;stroke-linejoin:round;stroke-miterlimit:10;" x1="245.735" y1="179.094" x2="261.694" y2="179.094"/>
				
					<line style="fill:#FFFFFF;stroke:#263238;stroke-linecap:round;stroke-linejoin:round;stroke-miterlimit:10;" x1="245.735" y1="183.005" x2="261.694" y2="183.005"/>
			</g>
			<g>
				<g>
					<polygon points="334.072,144.312 306.072,144.312 306.072,106.805 325.736,106.805 334.072,114.445 					"/>
					<polygon style="fill:#FFFFFF;stroke:#263238;stroke-linecap:round;stroke-linejoin:round;stroke-miterlimit:10;" points="
						335.708,143.046 307.708,143.046 307.708,105.539 327.371,105.539 335.708,113.179 					"/>
					<polygon style="stroke:#263238;stroke-linecap:round;stroke-linejoin:round;stroke-miterlimit:10;" points="327.371,105.539 
						325.326,114.512 335.708,113.179 					"/>
					<polygon style="fill:#FFFFFF;stroke:#263238;stroke-linecap:round;stroke-linejoin:round;stroke-miterlimit:10;" points="
						327.371,105.539 327.371,113.179 335.708,113.179 					"/>
				</g>
				
					<line style="fill:#FFFFFF;stroke:#263238;stroke-linecap:round;stroke-linejoin:round;stroke-miterlimit:10;" x1="313.068" y1="118.695" x2="329.027" y2="118.695"/>
				
					<line style="fill:#FFFFFF;stroke:#263238;stroke-linecap:round;stroke-linejoin:round;stroke-miterlimit:10;" x1="313.068" y1="122.606" x2="329.027" y2="122.606"/>
				
					<line style="fill:#FFFFFF;stroke:#263238;stroke-linecap:round;stroke-linejoin:round;stroke-miterlimit:10;" x1="313.068" y1="126.517" x2="329.027" y2="126.517"/>
				
					<line style="fill:#FFFFFF;stroke:#263238;stroke-linecap:round;stroke-linejoin:round;stroke-miterlimit:10;" x1="313.068" y1="130.428" x2="329.027" y2="130.428"/>
				
					<line style="fill:#FFFFFF;stroke:#263238;stroke-linecap:round;stroke-linejoin:round;stroke-miterlimit:10;" x1="313.068" y1="134.339" x2="329.027" y2="134.339"/>
			</g>
			<g>
				<g>
					<polygon points="401.406,192.979 373.406,192.979 373.406,155.471 393.069,155.471 401.406,163.111 					"/>
					<polygon style="fill:#C6FF00;stroke:#263238;stroke-linecap:round;stroke-linejoin:round;stroke-miterlimit:10;" points="
						403.041,191.713 375.041,191.713 375.041,154.206 394.705,154.206 403.041,161.846 					"/>
					<polygon style="stroke:#263238;stroke-linecap:round;stroke-linejoin:round;stroke-miterlimit:10;" points="394.705,154.206 
						392.659,163.178 403.041,161.846 					"/>
					<polygon style="fill:#FFFFFF;stroke:#263238;stroke-linecap:round;stroke-linejoin:round;stroke-miterlimit:10;" points="
						394.705,154.206 394.705,161.846 403.041,161.846 					"/>
				</g>
				
					<line style="fill:#FFFFFF;stroke:#263238;stroke-linecap:round;stroke-linejoin:round;stroke-miterlimit:10;" x1="380.402" y1="167.362" x2="396.361" y2="167.362"/>
				
					<line style="fill:#FFFFFF;stroke:#263238;stroke-linecap:round;stroke-linejoin:round;stroke-miterlimit:10;" x1="380.402" y1="171.273" x2="396.361" y2="171.273"/>
				
					<line style="fill:#FFFFFF;stroke:#263238;stroke-linecap:round;stroke-linejoin:round;stroke-miterlimit:10;" x1="380.402" y1="175.184" x2="396.361" y2="175.184"/>
				
					<line style="fill:#FFFFFF;stroke:#263238;stroke-linecap:round;stroke-linejoin:round;stroke-miterlimit:10;" x1="380.402" y1="179.094" x2="396.361" y2="179.094"/>
				
					<line style="fill:#FFFFFF;stroke:#263238;stroke-linecap:round;stroke-linejoin:round;stroke-miterlimit:10;" x1="380.402" y1="183.005" x2="396.361" y2="183.005"/>
			</g>
			<g>
				<g>
					<polygon points="129.731,192.979 101.731,192.979 101.731,155.471 121.395,155.471 129.731,163.111 					"/>
					<polygon style="fill:#FFFFFF;stroke:#263238;stroke-linecap:round;stroke-linejoin:round;stroke-miterlimit:10;" points="
						131.367,191.713 103.367,191.713 103.367,154.206 123.03,154.206 131.367,161.846 					"/>
					<polygon style="stroke:#263238;stroke-linecap:round;stroke-linejoin:round;stroke-miterlimit:10;" points="123.03,154.206 
						120.985,163.178 131.367,161.846 					"/>
					<polygon style="fill:#FFFFFF;stroke:#263238;stroke-linecap:round;stroke-linejoin:round;stroke-miterlimit:10;" points="
						123.03,154.206 123.03,161.846 131.367,161.846 					"/>
				</g>
				
					<line style="fill:#FFFFFF;stroke:#263238;stroke-linecap:round;stroke-linejoin:round;stroke-miterlimit:10;" x1="108.727" y1="167.362" x2="124.686" y2="167.362"/>
				
					<line style="fill:#FFFFFF;stroke:#263238;stroke-linecap:round;stroke-linejoin:round;stroke-miterlimit:10;" x1="108.727" y1="171.273" x2="124.686" y2="171.273"/>
				
					<line style="fill:#FFFFFF;stroke:#263238;stroke-linecap:round;stroke-linejoin:round;stroke-miterlimit:10;" x1="108.727" y1="175.184" x2="124.686" y2="175.184"/>
				
					<line style="fill:#FFFFFF;stroke:#263238;stroke-linecap:round;stroke-linejoin:round;stroke-miterlimit:10;" x1="108.727" y1="179.094" x2="124.686" y2="179.094"/>
				
					<line style="fill:#FFFFFF;stroke:#263238;stroke-linecap:round;stroke-linejoin:round;stroke-miterlimit:10;" x1="108.727" y1="183.005" x2="124.686" y2="183.005"/>
			</g>
		</g>
	</g>
</g>
<g id="Character_2">
	<g>
		<g>
			<ellipse style="fill:#C6FF00;" cx="320.638" cy="369.594" rx="49.736" ry="9.561"/>
			<ellipse style="opacity:0.5;fill:#FFFFFF;" cx="320.638" cy="369.594" rx="49.736" ry="9.561"/>
		</g>
		<g>
			<g>
				<g>
					<path style="fill:#FFFFFF;stroke:#263238;stroke-miterlimit:10;" d="M282.91,238.512c-0.062,0.058-0.134,0.107-0.215,0.146
						c-0.426,0.202-0.936,0.022-1.139-0.404l-2.004-4.212c-0.202-0.426-0.023-0.935,0.405-1.139
						c0.426-0.202,0.936-0.022,1.139,0.404l2.004,4.212C283.263,237.865,283.176,238.265,282.91,238.512z"/>
				</g>
				<path style="fill:#C6FF00;stroke:#263238;stroke-miterlimit:10;" d="M284.707,248.896c0,0,3.051,0.254,5.848,2.543
					c2.797,2.288,8.899,5.339,16.781,7.119c7.882,1.78,9.916,2.034,9.916,2.034l-2.034-10.933c0,0-11.187,0.254-16.018-0.509
					c-4.831-0.763-10.425-5.085-12.967-7.374C283.69,239.488,284.707,248.896,284.707,248.896z"/>
				<g>
					<path style="fill:#FFFFFF;stroke:#263238;stroke-miterlimit:10;" d="M288.222,249.377c-0.093,0.086-0.201,0.161-0.323,0.219
						c-0.639,0.304-1.404,0.032-1.708-0.607l-5.021-10.551c-0.304-0.638-0.038-1.403,0.607-1.708
						c0.639-0.304,1.404-0.032,1.708,0.607l5.021,10.551C288.753,248.405,288.621,249.005,288.222,249.377z"/>
				</g>
				<g>
					<path d="M284.559,231.485c-5.389,5.014-13.854,4.709-18.868-0.68c-5.014-5.389-4.709-13.854,0.68-18.868
						c5.389-5.014,13.854-4.709,18.868,0.68C290.254,218.007,289.949,226.471,284.559,231.485z M268.118,213.813
						c-4.355,4.052-4.601,10.891-0.55,15.245c4.052,4.355,10.89,4.602,15.245,0.55c4.355-4.052,4.601-10.891,0.55-15.245
						C279.311,210.008,272.473,209.762,268.118,213.813z"/>
				</g>
				<path style="fill:#FFFFFF;stroke:#263238;stroke-miterlimit:10;" d="M286.456,238.738c0,0,1.392-0.739,1.96,0.406
					c0.568,1.144,2.123,3.51,1.835,4.367c-0.288,0.856-1.907,0.947-2.705,0.107c-0.798-0.84-1.875-3.681-1.875-3.681
					L286.456,238.738z"/>
				<path style="fill:#FFFFFF;stroke:#263238;stroke-miterlimit:10;" d="M281.119,240.437l5.338-1.699c0,0,0.589,0.325,0.701,1.126
					c0.112,0.8,2.366,5.244,2.115,6.367c-0.251,1.123-5.132,3.166-5.626,2.555c-0.493-0.611-3.369-7.552-3.369-7.552
					S280.204,240.701,281.119,240.437z"/>
				
					<line style="fill:none;stroke:#263238;stroke-linecap:round;stroke-miterlimit:10;" x1="287.27" y1="240.664" x2="282.447" y2="242.155"/>
				
					<line style="fill:none;stroke:#263238;stroke-linecap:round;stroke-miterlimit:10;" x1="287.968" y1="242.742" x2="283.583" y2="244.444"/>
				
					<line style="fill:none;stroke:#263238;stroke-linecap:round;stroke-miterlimit:10;" x1="288.782" y1="244.668" x2="284.623" y2="247.018"/>
			</g>
			<path style="fill:#C6FF00;stroke:#263238;stroke-miterlimit:10;" d="M308.607,219.656c0,0-4.322,8.136-4.831,16.273
				c-0.509,8.136,6.865,9.153,7.882,9.916c1.017,0.763,4.831,32.799,4.831,32.799s-26.697,34.325-26.697,38.139
				c0,3.814-3.814,41.19-3.814,41.19l5.594,0.254c0,0,8.391-23.646,10.425-29.24c2.034-5.594,2.797-14.238,2.797-14.238
				l24.663-23.137c0,0,2.797,22.629,5.339,27.46s20.087,39.664,20.087,39.664s3.051,0.763,4.577,0.763
				c1.526,0,3.051-0.763,3.051-0.763l-15.001-42.97c0,0,0.763-39.156-2.543-45.512c-3.305-6.357-11.696-15.51-11.696-15.51
				s-7.119-29.494-8.136-34.071c-1.017-4.577-6.865-8.391-9.662-8.391C312.675,212.283,308.607,219.656,308.607,219.656z"/>
			<g>
				<path style="fill:#FFFFFF;stroke:#263238;stroke-miterlimit:10;" d="M304.03,214.571l3.56,5.594c0,0-2.034,8.645-0.254,6.611
					c1.78-2.034,4.577-9.408,6.102-10.933c1.526-1.525,2.034-3.56,2.034-3.56l-7.628-4.322L304.03,214.571z"/>
				<g>
					<path style="fill:#FFFFFF;stroke:#263238;stroke-miterlimit:10;" d="M288.208,195.919c0,0-0.45,4.667,1.076,6.956
						c1.526,2.288,2.034,3.051,1.526,4.577c-0.509,1.525-2.797,1.525-2.288,2.797c0.508,1.271,3.305,1.78,3.305,1.78
						s3.051,7.119,5.848,7.119c2.797,0,9.931-7.003,10.949-9.546c1.017-2.543-9.423-9.269-11.203-10.795
						C295.64,197.281,290.242,193.123,288.208,195.919z"/>
					<path d="M294.428,204.777c0.285,0.853,0.193,1.653-0.206,1.786c-0.398,0.133-0.952-0.451-1.237-1.305
						c-0.285-0.853-0.193-1.653,0.206-1.786C293.589,203.34,294.143,203.924,294.428,204.777z"/>
					<path style="fill:none;stroke:#263238;stroke-linecap:round;stroke-miterlimit:10;" d="M293.652,212.716
						c0,0,2.458,0,3.277-3.55"/>
				</g>
			</g>
			<path d="M289.465,184.055c0,0-1.876,0-5.254,0c-3.378,0-3.753,6.755,3.378,14.262s21.392,16.513,29.649,16.513
				c8.257,0,15.388,2.252,18.39,10.508c3.003,8.257,7.881,15.763,22.518,12.76c14.637-3.002,18.39-22.894,7.881-39.782
				c-10.509-16.889-24.395-13.886-31.526-10.509c-7.131,3.378-19.141,4.504-21.392,0c-2.252-4.504-7.573-7.526-13.203-7.526
				C294.277,180.282,289.465,184.055,289.465,184.055z"/>
			<path style="stroke:#263238;stroke-miterlimit:10;" d="M362.51,358.736l-15.001-42.97c0,0,0.763-39.156-2.543-45.512
				c-2.835-5.452-9.396-12.944-11.21-14.971l-19.508,5.705c1.163,8.598,2.241,17.656,2.241,17.656s-26.697,34.325-26.697,38.139
				c0,3.814-3.814,41.19-3.814,41.19l5.594,0.254c0,0,8.391-23.646,10.425-29.24c2.034-5.594,2.797-14.238,2.797-14.238
				l24.663-23.138c0,0,2.797,22.629,5.339,27.46s20.087,39.664,20.087,39.664s3.051,0.763,4.577,0.763
				C360.984,359.499,362.51,358.736,362.51,358.736z"/>
			<g>
				<path style="fill:#C6FF00;stroke:#263238;stroke-miterlimit:10;" d="M319.286,219.911c0,0-4.068-1.017-5.594,3.051
					c-1.526,4.068,4.831,7.628,9.662,12.967c4.831,5.339,18.815,16.272,18.815,16.272l8.136,25.934l3.814-0.763
					c0,0-5.085-29.494-5.085-30.257c0-0.763-21.358-21.866-22.12-22.629c-0.763-0.763-3.814-4.068-3.814-4.068"/>
				<path style="fill:#FFFFFF;stroke:#263238;stroke-miterlimit:10;" d="M350.305,278.136l-1.526,6.611l2.543,4.831
					c0,0,2.034,0.763,2.543-0.254c0.509-1.017,0.509-1.017,0.509-1.017s2.543-0.254,2.797-2.543
					c0.254-2.288-3.051-8.391-3.051-8.391L350.305,278.136z"/>
			</g>
			<g>
				<path style="fill:#C6FF00;stroke:#263238;stroke-miterlimit:10;" d="M285.978,357.973c0,0-12.459,9.153-12.967,10.679
					c-0.509,1.526,16.781-2.543,18.307-2.797c1.526-0.254,0.254-7.628,0.254-7.628L285.978,357.973z"/>
				<path style="fill:#FFFFFF;stroke:#263238;stroke-miterlimit:10;" d="M274.276,367.213c-0.705,0.656-1.175,1.169-1.265,1.439
					c-0.509,1.526,16.781-2.542,18.307-2.797c0.524-0.087,0.714-1.02,0.743-2.199L274.276,367.213z"/>
			</g>
			<g>
				<path style="fill:#C6FF00;stroke:#263238;stroke-miterlimit:10;" d="M354.882,358.736c0,0-10.425,1.78-9.153,3.305
					c1.271,1.526,4.577,3.051,7.119,3.051s3.56,0.763,5.848,2.034c2.288,1.271,3.814,1.271,4.577-0.763
					c0.763-2.034-0.763-7.628-0.763-7.628S356.408,360.007,354.882,358.736z"/>
				<path style="fill:#FFFFFF;stroke:#263238;stroke-miterlimit:10;" d="M358.696,367.126c2.288,1.271,3.814,1.271,4.577-0.763
					c0.077-0.206,0.126-0.457,0.16-0.727c-3.793,1.919-7.283-2.628-10.468-2.628c-2.025,0-4.781-1.105-6.638-1.974
					c-0.599,0.334-0.874,0.677-0.598,1.007c1.271,1.526,4.577,3.051,7.119,3.051S356.408,365.855,358.696,367.126z"/>
			</g>
			<path style="fill:none;stroke:#FFFFFF;stroke-width:0.75;stroke-miterlimit:10;" d="M296.593,196.445
				c1.994,4.039,4.89,8.767,8.225,10.712"/>
			<path style="fill:none;stroke:#FFFFFF;stroke-width:0.75;stroke-miterlimit:10;" d="M293.74,189.748c0,0,0.455,1.315,1.272,3.24"
				/>
			<g>
				<path style="fill:none;stroke:#FFFFFF;stroke-width:0.75;stroke-linecap:round;stroke-miterlimit:10;" d="M366.313,204.684
					c0.916,0.745,1.702,1.572,2.34,2.473"/>
				<path style="fill:none;stroke:#FFFFFF;stroke-width:0.75;stroke-linecap:round;stroke-miterlimit:10;" d="M287.233,188.517
					c0,0,3.517,11.958,15.299,17.585c11.782,5.627,16.53,4.396,31.478-2.11c11.444-4.982,22.682-4.706,29.61-1.067"/>
				<path style="fill:none;stroke:#FFFFFF;stroke-width:0.75;stroke-linecap:round;stroke-miterlimit:10;" d="M345.432,228.251
					c-0.195-3.868,3.767-3.311,4.229-3.157"/>
				<path style="fill:none;stroke:#FFFFFF;stroke-width:0.75;stroke-linecap:round;stroke-miterlimit:10;" d="M325.569,207.509
					c0,0,6.858-1.231,20.223-1.055c13.365,0.176,21.63,13.892,18.992,22.157c-2.42,7.582-14.902,7.617-18.307,2.956"/>
			</g>
		</g>
	</g>
</g>
<g id="Character_1">
	<g>
		<g>
			<ellipse style="fill:#C6FF00;" cx="182.993" cy="252.854" rx="49.736" ry="9.561"/>
			<ellipse style="opacity:0.5;fill:#FFFFFF;" cx="182.993" cy="252.854" rx="49.736" ry="9.561"/>
		</g>
		<g>
			<path style="stroke:#263238;stroke-miterlimit:10;" d="M207.669,99.771c0,0,0.038-4.979,0.038-8.177s4.532-8.729,11.385-8.958
				c6.854-0.229,18.049,8.682,16.221,13.479c-1.828,4.798-4.341,2.056-4.341,2.056s1.828,2.056-0.685,3.198
				c-2.513,1.142-4.341-3.655-4.341-3.655s-3.427-3.198-6.625-3.198s-2.285,0.228-4.569,3.427c-2.285,3.198-4.341,2.285-4.341,3.427
				c0,1.142,1.599,2.97-0.914,2.97C206.984,104.341,207.669,99.771,207.669,99.771z"/>
			<g>
				<path style="fill:#C6FF00;stroke:#263238;stroke-miterlimit:10;" d="M109.693,211.452c0,0-7.476-2.136-8.544-1.495
					c-1.068,0.641-2.35,17.089-1.923,18.584c0.427,1.495,7.049-11.108,7.049-11.108l3.204-0.427L109.693,211.452z"/>
				<path style="fill:#FFFFFF;stroke:#263238;stroke-miterlimit:10;" d="M102.267,209.855c-0.524-0.035-0.927-0.012-1.119,0.102
					c-1.068,0.641-2.35,17.089-1.922,18.584c0.101,0.352,0.546-0.083,1.166-0.944L102.267,209.855z"/>
			</g>
			<path style="stroke:#263238;stroke-miterlimit:10;" d="M171.425,157.196c0,0-3.204,4.486-5.127,8.971
				c-1.923,4.486-4.059,9.185-4.059,9.185l-12.603,27.769c0,0-23.497,5.554-26.487,6.408c-2.99,0.854-13.457,1.923-13.457,1.923
				l-0.214,5.554c0,0,29.264,0.854,36.1,0.854c6.835,0,8.117,1.282,10.68-0.641c2.563-1.923,21.574-34.177,21.574-34.177
				l7.476-0.427c0,0,21.147,24.351,22.856,26.915c1.709,2.563,7.476,19.652,10.467,25.206c2.99,5.554,6.408,9.399,6.408,9.399
				l4.699-5.34c0,0-10.04-32.255-11.321-39.09c-1.282-6.836-18.37-28.837-18.37-28.837l1.709-11.321
				C201.758,159.546,174.202,160.4,171.425,157.196z"/>
			<path style="fill:#C6FF00;stroke:#263238;stroke-miterlimit:10;" d="M208.565,114.331c0,0-15.481-0.893-17.713-0.744
				c-2.233,0.149-4.317,0.447-4.615,1.786c-0.298,1.34-15.778,41.381-15.778,44.06c0,2.679,8.633,6.252,16.672,6.252
				c8.038,0,13.546-4.317,14.29-4.912c0.744-0.595,20.839-38.255,21.286-39.148c0.447-0.893,0.298-2.233-1.191-3.573
				C220.027,116.713,208.565,114.331,208.565,114.331z"/>
			<path style="fill:#C6FF00;stroke:#263238;stroke-miterlimit:10;" d="M209.458,111.95c0,0-4.019,0.893-5.061,2.233
				c-1.042,1.34-4.168,13.397-4.168,13.397l8.038-1.637l4.615,6.996c0,0,3.126-10.122,3.275-14.439
				C216.306,114.182,211.691,111.503,209.458,111.95z"/>
			<g>
				<path style="fill:#C6FF00;stroke:#263238;stroke-miterlimit:10;" d="M186.378,114.261c0,0-7.263,2.136-12.603,5.554
					c-5.34,3.418-20.934,12.816-20.934,12.816l10.04,2.563l18.37-7.263C181.251,127.932,185.096,119.815,186.378,114.261z"/>
				<g>
					<path style="fill:#C6FF00;stroke:#263238;stroke-miterlimit:10;" d="M182.106,134.767c0,0-9.826-1.068-14.312-2.35
						c-4.486-1.282-8.758-3.845-13.244-1.068c-4.486,2.777-4.059,5.981-1.282,8.117c2.777,2.136,18.797,0.214,22.001,0
						c3.204-0.214,5.34-1.709,5.34-1.709L182.106,134.767z"/>
					<g>
						<path style="fill:#FFFFFF;stroke:#263238;stroke-miterlimit:10;" d="M179.756,134.981c0,0,9.826-3.631,10.467-3.631
							c0.641,0,1.923,0,2.136,1.495c0.214,1.495,1.068,5.126,0.214,5.34c-0.854,0.214-5.34,1.923-6.408,1.923
							c-1.068,0-2.136-0.427-2.136-0.427s-2.563,1.068-4.913-0.854C176.766,136.903,178.474,135.622,179.756,134.981z"/>
						<line style="fill:none;stroke:#263238;stroke-miterlimit:10;" x1="184.028" y1="139.68" x2="183.174" y2="137.117"/>
						
							<line style="fill:none;stroke:#263238;stroke-linecap:round;stroke-miterlimit:10;" x1="186.805" y1="134.126" x2="188.3" y2="139.68"/>
						
							<line style="fill:none;stroke:#263238;stroke-linecap:round;stroke-miterlimit:10;" x1="189.368" y1="132.417" x2="190.864" y2="138.185"/>
						
							<line style="fill:none;stroke:#263238;stroke-linecap:round;stroke-miterlimit:10;" x1="184.669" y1="135.194" x2="186.164" y2="140.107"/>
					</g>
				</g>
			</g>
			<g>
				<path style="fill:#C6FF00;stroke:#263238;stroke-miterlimit:10;" d="M222.033,118.688c0,0,2.424,1.885,4.714,6.464
					c2.289,4.579,9.023,19.258,9.023,19.258s2.155,4.983-2.289,6.599s-4.983-2.693-6.868-5.117
					c-1.885-2.424-8.754-14.949-8.754-14.949L222.033,118.688z"/>
				<path style="fill:#C6FF00;stroke:#263238;stroke-miterlimit:10;" d="M226.881,143.333c0,0,2.02-2.02,5.521-1.616
					c3.502,0.404,4.714,5.791,3.367,8.619c-1.347,2.828-4.983,3.906-6.195,3.367C228.362,153.164,224.457,151.009,226.881,143.333z"
					/>
				<g>
					<path style="fill:#FFFFFF;stroke:#263238;stroke-miterlimit:10;" d="M228.552,142.634c-0.085,0-0.171-0.013-0.257-0.04
						c-0.45-0.142-0.7-0.622-0.558-1.072l1.402-4.448c0.142-0.45,0.62-0.7,1.072-0.558c0.45,0.142,0.7,0.622,0.558,1.072
						l-1.402,4.448C229.252,142.4,228.915,142.634,228.552,142.634z"/>
				</g>
				<g>
					<path style="fill:#FFFFFF;stroke:#263238;stroke-miterlimit:10;" d="M225.041,154.206c-0.127,0-0.257-0.019-0.385-0.06
						c-0.675-0.213-1.05-0.932-0.837-1.607l3.511-11.145c0.212-0.674,0.928-1.053,1.608-0.837c0.675,0.213,1.05,0.932,0.837,1.607
						l-3.511,11.145C226.091,153.856,225.586,154.206,225.041,154.206z"/>
				</g>
				<g>
					<path d="M234.546,138.612c-7.361,0-13.35-5.989-13.35-13.35c0-7.362,5.989-13.351,13.35-13.351
						c7.361,0,13.35,5.989,13.35,13.351C247.897,132.623,241.908,138.612,234.546,138.612z M234.546,114.475
						c-5.948,0-10.787,4.839-10.787,10.787c0,5.948,4.839,10.787,10.787,10.787c5.948,0,10.787-4.839,10.787-10.787
						C245.333,119.314,240.495,114.475,234.546,114.475z"/>
				</g>
				<path style="fill:#FFFFFF;stroke:#263238;stroke-miterlimit:10;" d="M225.265,142.256c0,0-1.481-0.539-1.885,0.673
					c-0.404,1.212-1.616,3.771-1.212,4.579c0.404,0.808,2.02,0.673,2.693-0.269c0.673-0.943,1.347-3.906,1.347-3.906
					L225.265,142.256z"/>
				<path style="fill:#FFFFFF;stroke:#263238;stroke-miterlimit:10;" d="M230.787,143.198l-5.522-0.943c0,0-0.539,0.404-0.539,1.212
					c0,0.808-1.616,5.521-1.212,6.599c0.404,1.077,5.522,2.424,5.926,1.751c0.404-0.673,2.29-7.946,2.29-7.946
					S231.729,143.333,230.787,143.198z"/>
				
					<line style="fill:none;stroke:#263238;stroke-linecap:round;stroke-miterlimit:10;" x1="224.726" y1="144.276" x2="229.709" y2="145.084"/>
				
					<line style="fill:none;stroke:#263238;stroke-linecap:round;stroke-miterlimit:10;" x1="224.322" y1="146.43" x2="228.901" y2="147.508"/>
				
					<line style="fill:none;stroke:#263238;stroke-linecap:round;stroke-miterlimit:10;" x1="223.784" y1="148.451" x2="228.228" y2="150.201"/>
			</g>
			<g>
				<path style="fill:#FFFFFF;stroke:#263238;stroke-miterlimit:10;" d="M209.012,108.824c0,0-1.935,7.74-1.935,11.164
					s0,6.252,1.191,5.954c1.191-0.298,5.21-8.038,5.954-11.015C214.966,111.95,212.286,106.144,209.012,108.824z"/>
				<g>
					<path style="fill:#FFFFFF;stroke:#263238;stroke-miterlimit:10;" d="M208.583,100.228c0,0-1.599-2.742-2.513-0.914
						c-0.914,1.828-1.828,6.169-0.457,7.539c1.371,1.371,1.828-0.685,1.828-0.685s0.229,6.168,2.513,8.453s4.798,3.427,8.453,1.828
						c3.656-1.599,8.225-8.225,9.596-12.794c1.371-4.569,1.599-6.854,1.599-6.854s-0.914-3.655-6.169-4.798
						c-5.255-1.142-10.738,0.914-10.738,3.198c0,2.285,1.142,2.513-0.228,3.198c-1.371,0.685-2.285,0.685-2.285,0.685
						S209.269,103.884,208.583,100.228z"/>
					<path d="M223.108,104.995c-0.23,0.792-0.691,1.354-1.03,1.256c-0.339-0.098-0.428-0.82-0.199-1.612
						c0.23-0.792,0.691-1.354,1.03-1.256C223.248,103.481,223.337,104.203,223.108,104.995z"/>
					
						<line style="fill:none;stroke:#263238;stroke-linecap:round;stroke-miterlimit:10;" x1="214.816" y1="101.973" x2="218.086" y2="103.964"/>
					<path style="fill:none;stroke:#263238;stroke-linecap:round;stroke-miterlimit:10;" d="M222.209,101.12
						c0,0,2.275-2.133,2.986,0.427"/>
					<path style="fill:none;stroke:#263238;stroke-linecap:round;stroke-miterlimit:10;" d="M219.081,100.836
						c0,0-0.426-3.128-3.128-2.275"/>
					<path style="fill:none;stroke:#263238;stroke-linecap:round;stroke-miterlimit:10;" d="M221.356,103.395
						c0,0-1.564,1.137-1.564,2.843c0,1.706,1.422,3.27,0.142,3.554c-1.279,0.284-3.27-1.137-3.27-1.137"/>
					<path style="fill:none;stroke:#263238;stroke-linecap:round;stroke-miterlimit:10;" d="M217.801,112.21
						c0,0-3.697,0.569-4.123-2.133"/>
				</g>
			</g>
			<g>
				<path style="fill:#C6FF00;stroke:#263238;stroke-miterlimit:10;" d="M225.041,244.134c0,0,2.136,5.981,3.631,5.981
					c1.495,0,13.457-11.748,13.884-13.03c0.427-1.282-11.108,2.991-11.108,2.991l-1.709-1.282L225.041,244.134z"/>
				<path style="fill:#FFFFFF;stroke:#263238;stroke-miterlimit:10;" d="M240.156,237.215l-12.5,12.192
					c0.35,0.428,0.698,0.709,1.017,0.709c1.495,0,13.457-11.748,13.884-13.03C242.69,236.683,241.649,236.828,240.156,237.215z"/>
			</g>
		</g>
	</g>
</g>
</svg>
